<svg id="Layer_1" data-name="Layer 1" xmlns="http://www.w3.org/2000/svg" viewBox="0 0 201.65 191.93"><defs><style>.cls-1{fill:#fff;}</style></defs><title>martian white</title><g id="Layer_2" data-name="Layer 2"><g id="Layer_3" data-name="Layer 3"><path class="cls-1" d="M76.42,146.85a32.07,32.07,0,0,0,4.43,11.4,92.34,92.34,0,0,0,6.95,10.08q3.81,4.81,7.93,9.39c2.74,3,5.57,6.07,8.44,8.89H100.7c2.83-2.77,5.63-5.79,8.31-8.82s5.25-6.18,7.71-9.39a84.33,84.33,0,0,0,6.62-10.13,34.22,34.22,0,0,0,4.1-11.42c.52,4.17-.48,8.44-1.87,12.41a62.74,62.74,0,0,1-2.53,5.82c-.93,1.9-2,3.71-3.1,5.51a96.28,96.28,0,0,1-7.31,10.25,114.91,114.91,0,0,1-8.46,9.37l-1.74,1.72-1.74-1.72a122.37,122.37,0,0,1-8.56-9.4,104.56,104.56,0,0,1-7.51-10.23,67,67,0,0,1-6-11.26,39,39,0,0,1-1.87-6.13A19.32,19.32,0,0,1,76.42,146.85Z"/><path class="cls-1" d="M53,128.24a20.81,20.81,0,0,1-6.34,1.69,42,42,0,0,1-6.61.21,71.91,71.91,0,0,1-13-2,111.53,111.53,0,0,1-12.55-3.8c-4.12-1.5-8.11-3.15-12.12-5.07L0,118.16l1.19-2.27a122.54,122.54,0,0,1,6.72-11.26,102.9,102.9,0,0,1,7.92-10.42c1.45-1.64,2.91-3.27,4.49-4.79a54.46,54.46,0,0,1,5-4.33c3.5-2.63,7.39-5,11.67-5.83a36.29,36.29,0,0,0-10,7.66,90.12,90.12,0,0,0-8,9.72c-2.44,3.44-4.78,6.95-7,10.56-1.1,1.8-2.19,3.61-3.23,5.45s-2.09,3.7-3,5.51l-1.12-3.37c3.75,1.81,7.7,3.52,11.61,5.14S24,123,28,124.39a99.57,99.57,0,0,0,12.24,3.32A34.78,34.78,0,0,0,53,128.24Z"/><path class="cls-1" d="M44.35,55.31a20.2,20.2,0,0,1-3.51-5.41,40,40,0,0,1-2.18-6.13A68.51,68.51,0,0,1,36.72,31a106.28,106.28,0,0,1-.06-12.89c.23-4.3.63-8.53,1.29-12.85l.37-2.43,2.43.37a118.18,118.18,0,0,1,12.7,2.62A99.4,99.4,0,0,1,65.73,9.9c2,.83,4,1.69,5.91,2.69a63.4,63.4,0,0,1,5.62,3.29c3.56,2.46,7,5.39,9.08,9.16A35,35,0,0,0,76,18a86.17,86.17,0,0,0-11.63-4.43c-4-1.18-8-2.25-12.09-3.14-2-.45-4.08-.88-6.13-1.26S42,8.41,40,8.17l2.8-2.07c-.64,4-1.11,8.23-1.51,12.37s-.64,8.31-.77,12.47A94.1,94.1,0,0,0,41,43.37,33.4,33.4,0,0,0,44.35,55.31Z"/><path class="cls-1" d="M159.81,55.87A31.92,31.92,0,0,0,163.25,44a89,89,0,0,0,.52-12.36c-.12-4.13-.33-8.27-.76-12.39S162.14,11,161.45,7l2.23,1.64c-4,.54-8.16,1.34-12.19,2.23s-8.06,1.95-12,3.13a82.08,82.08,0,0,0-11.54,4.47,33.41,33.41,0,0,0-10.11,7.13c2.16-3.67,5.58-6.49,9.14-8.84a64.06,64.06,0,0,1,5.6-3.14c1.91-1,3.89-1.77,5.88-2.56a106.71,106.71,0,0,1,12.18-3.87c4.14-1,8.27-1.87,12.55-2.51l1.93-.29.29,1.93c.65,4.25,1.11,8.43,1.38,12.67a114.45,114.45,0,0,1,.1,12.73,69.13,69.13,0,0,1-1.7,12.66,39.68,39.68,0,0,1-2,6.08A20.25,20.25,0,0,1,159.81,55.87Z"/><path class="cls-1" d="M150.69,128.5a32.92,32.92,0,0,0,12.24-.59,92.71,92.71,0,0,0,11.78-3.38q5.78-2.09,11.44-4.53c3.75-1.63,7.53-3.36,11.12-5.19l-1.11,3.27c-.84-1.79-1.8-3.66-2.76-5.46s-2-3.62-3-5.41c-2-3.58-4.21-7.06-6.48-10.47a83.27,83.27,0,0,0-7.58-9.64,33.65,33.65,0,0,0-9.68-7.57c4.18.81,8,3.15,11.34,5.77a63.85,63.85,0,0,1,4.76,4.32c1.51,1.52,2.9,3.15,4.27,4.78a96.55,96.55,0,0,1,7.43,10.38,115.11,115.11,0,0,1,6.19,11.2l1,2.18-2.16,1.09a127,127,0,0,1-11.64,5.14,104.17,104.17,0,0,1-12.1,3.87,67.24,67.24,0,0,1-12.59,2.08,39.31,39.31,0,0,1-6.41-.18A19.87,19.87,0,0,1,150.69,128.5Z"/><path class="cls-1" d="M76.42,47.16a21.52,21.52,0,0,1,.31-6.55,41.35,41.35,0,0,1,1.79-6.38,63.59,63.59,0,0,1,2.68-6c1-1.93,2.11-3.86,3.24-5.74A106.89,106.89,0,0,1,92,11.7a129.13,129.13,0,0,1,8.67-9.89L102.41,0l1.77,1.8a115.56,115.56,0,0,1,8.58,9.86,97.84,97.84,0,0,1,7.35,10.77c1.09,1.89,2.15,3.8,3.08,5.77a62.25,62.25,0,0,1,2.48,6.08,30.26,30.26,0,0,1,1.75,12.87,37.52,37.52,0,0,0-4-11.93,85.73,85.73,0,0,0-6.57-10.68c-2.46-3.39-5-6.71-7.76-9.91-1.36-1.6-2.73-3.19-4.15-4.74s-2.85-3.12-4.28-4.55h3.53c-2.92,3-5.79,6.17-8.55,9.37s-5.42,6.53-8,9.91a94.9,94.9,0,0,0-6.91,10.62A35.33,35.33,0,0,0,76.42,47.16Z"/><path class="cls-1" d="M129.42,50.16a21.78,21.78,0,0,1,6.55-1.4,43.22,43.22,0,0,1,6.75.1,73.36,73.36,0,0,1,13.18,2.67A113.13,113.13,0,0,1,168.52,56c4.12,1.74,8.12,3.62,12.11,5.78L182.89,63l-1.3,2.2a120,120,0,0,1-7.38,11,101.75,101.75,0,0,1-8.58,10.08c-1.56,1.57-3.13,3.13-4.82,4.58A65.18,65.18,0,0,1,155.54,95c-3.68,2.45-7.76,4.56-12.12,5.19A37.31,37.31,0,0,0,154,93a88.36,88.36,0,0,0,8.7-9.31c2.7-3.29,5.3-6.69,7.67-10.22s4.77-7.13,6.88-10.74l1,3.42c-1.84-1-3.8-2-5.74-3s-3.9-1.91-5.86-2.83c-3.93-1.85-7.92-3.54-11.95-5.13a100.67,100.67,0,0,0-12.34-4A36.16,36.16,0,0,0,129.42,50.16Z"/><path class="cls-1" d="M73.42,50.16a37.67,37.67,0,0,0-12.85,1,103.74,103.74,0,0,0-12.35,3.69q-6.06,2.24-12,4.85c-3.93,1.74-7.89,3.58-11.65,5.52l1-3.47c1.09,1.82,2.28,3.71,3.48,5.53s2.43,3.66,3.68,5.45c2.5,3.61,5.15,7.1,7.89,10.52a94.27,94.27,0,0,0,8.92,9.59,37.92,37.92,0,0,0,10.87,7.35c-4.48-.66-8.64-2.89-12.41-5.42-1.86-1.31-3.65-2.73-5.38-4.21s-3.33-3.09-4.93-4.71a108.37,108.37,0,0,1-8.81-10.33,128.21,128.21,0,0,1-7.63-11.26L19.9,62l2.35-1.2c4-2,8-3.83,12.17-5.45a114.19,114.19,0,0,1,12.64-4.18,74.6,74.6,0,0,1,13.15-2.4,44,44,0,0,1,6.71,0A22.55,22.55,0,0,1,73.42,50.16Z"/><path class="cls-1" d="M58.42,102.16a37.67,37.67,0,0,0-3.48,12.57,105.79,105.79,0,0,0-.73,13c0,4.36.18,8.72.48,13.08s.67,8.74,1.21,13L53,151.7c2.06-.38,4.21-.87,6.31-1.37s4.22-1,6.31-1.59c4.2-1.12,8.34-2.41,12.43-3.82A92.54,92.54,0,0,0,90,139.81a38,38,0,0,0,10.48-7.66c-2.13,3.94-5.58,7.08-9.19,9.74-1.84,1.3-3.76,2.5-5.71,3.62s-4,2.08-6,3A106.24,106.24,0,0,1,67,153.26a125.79,125.79,0,0,1-13,3.33l-2.6.51-.32-2.64c-.55-4.53-.86-9-1-13.45a117,117,0,0,1,.37-13.46,76.11,76.11,0,0,1,2.22-13.34,44.85,44.85,0,0,1,2.29-6.39A22.44,22.44,0,0,1,58.42,102.16Z"/><path class="cls-1" d="M146.42,102.16a21.68,21.68,0,0,1,3.57,5.71,43.43,43.43,0,0,1,2.21,6.42,73.86,73.86,0,0,1,2,13.38,114.23,114.23,0,0,1,.06,13.47c-.24,4.49-.65,8.91-1.33,13.42l-.39,2.57-2.54-.52a120.56,120.56,0,0,1-12.81-3.36,102.54,102.54,0,0,1-12.31-4.79c-2-.95-4-1.92-5.89-3a65.43,65.43,0,0,1-5.58-3.62,31,31,0,0,1-9-9.65,38.37,38.37,0,0,0,10.26,7.6,90.28,90.28,0,0,0,11.65,5.13q6,2.14,12.18,3.84c4.09,1.12,8.29,2.17,12.38,3l-2.88,2c.33-2.09.61-4.29.85-6.45s.48-4.34.67-6.51c.41-4.35.64-8.7.77-13.05a101.21,101.21,0,0,0-.48-13A36,36,0,0,0,146.42,102.16Z"/></g><g id="eyes"><ellipse class="cls-1" cx="101.89" cy="71.3" rx="22.04" ry="10.45"/><ellipse class="cls-1" cx="102.37" cy="105.82" rx="21.82" ry="10.85"/><path class="cls-1" d="M101.67,84.9c-7.56,0-24.24-11-26.11-12.37L73.49,71l2.06-1.5c1.88-1.36,18.55-12.37,26.11-12.37s24.24,11,26.11,12.37l2.06,1.5-2.06,1.5C125.9,73.89,109.23,84.9,101.67,84.9ZM79.85,71c5.92,4.08,17.08,10.17,21.82,10.17s15.9-6.09,21.82-10.17c-5.92-4.08-17.08-10.17-21.82-10.17S85.76,66.95,79.85,71Z"/><circle cx="101.25" cy="71.03" r="11.05"/><path class="cls-1" d="M102.17,119.9c-7.56,0-24.24-11-26.11-12.37L74,106l2.06-1.5c1.88-1.36,18.55-12.37,26.11-12.37s24.24,11,26.11,12.37l2.06,1.5-2.06,1.5C126.4,108.89,109.73,119.9,102.17,119.9ZM80.35,106c5.92,4.08,17.08,10.17,21.82,10.17S118.07,110.11,124,106c-5.92-4.08-17.08-10.17-21.82-10.17S86.26,101.95,80.35,106Z"/><circle cx="101.75" cy="106.03" r="11.05"/></g></g></svg>